<svg xmlns="http://www.w3.org/2000/svg" viewBox="0 0 106 106" aria-labelledby="rd2d-title" aria-describedby="rd2d-desc" width="106" height="106"><path d="M52.95 22.1c-13.2 0-23.9 10.8-23.9 24.1v2.198c-4-.9-8 1.602-9 5.602-.1.6-.2 1.1-.2 1.7v40.599L17.15 104c-.3.8.1 1.598.9 1.898.2.1.3.102.5.102h17.5c.8 0 1.5-.7 1.5-1.5 0-.2 0-.3-.1-.5l-2.6-7.701v-4.6h.7l4.1 5.9c.3.4.7.6 1.2.6h4l-2 5.801c-.3.8.099 1.598.899 1.898.2.1.3.102.5.102h17.5c.8 0 1.5-.7 1.5-1.5 0-.2 0-.3-.1-.5l-2-5.8h3.202c.5 0 .899-.2 1.199-.6l4.8-6h.8v4.699L68.45 104c-.3.8.1 1.598.9 1.898.2.1.3.102.5.102h17.5c.8 0 1.5-.6 1.5-1.5.1-.1.1-.3.1-.4l-2.701-7.702V55.7c0-4.1-3.3-7.5-7.5-7.5-.6 0-1.199.1-1.799.2v-2.501c0-13.2-10.7-23.798-23.9-23.798h-.1zm0 3h.1c11.5 0 20.9 9.298 21 20.798V48.2h-42l.1-1.3v-.7c-.1-11.6 9.2-21 20.8-21.1zm.1 1.699c-2.8 0-5 2.2-5 5s2.2 5 5 5 5-2.2 5-5-2.2-5-5-5zm0 2.9c1.1 0 2 .9 2 2s-.9 2-2 2-2-.9-2-2 .9-2 2-2zm11.9 7.5a3.2 3.2 0 00-3.201 3.2 3.2 3.2 0 003.201 3.2 3.2 3.2 0 003.2-3.2 3.2 3.2 0 00-3.2-3.2zm-37.5 14c.6 0 1.2.101 1.7.301v40.2h2.8v2.698h-9V55.7c0-2.5 2-4.5 4.5-4.5zm4.7 0h41.8v37.5h-41.8V51.2zm46.552.03c1.749-.005 3.399 1.046 4.149 2.771.2.6.398 1.199.398 1.799V94.5h-9v-2.8h2.701V51.6c.575-.25 1.17-.37 1.752-.371zm-35.252 6.57c-.8 0-1.5.7-1.5 1.5s.7 1.5 1.5 1.5h19.2c.8 0 1.5-.7 1.5-1.5s-.7-1.5-1.5-1.5h-19.2zm0 6.4c-.8 0-1.5.7-1.5 1.5s.7 1.5 1.5 1.5h19.2c.8 0 1.5-.7 1.5-1.5s-.7-1.5-1.5-1.5h-19.2zm0 6.4c-.8 0-1.5.7-1.5 1.5s.7 1.5 1.5 1.5h19.2c.8 0 1.5-.7 1.5-1.5s-.7-1.5-1.5-1.5h-19.2zM22.65 97.5h9.4l2 5.6H20.749l1.9-5.6zm51.3 0h9.299l2 5.6h-13.2l1.901-5.6zm-25.8.799h10l1.599 4.8H46.45l1.7-4.8z"/></svg>