<svg xmlns="http://www.w3.org/2000/svg" viewBox="0 0 106 106" aria-labelledby="spaceman-title" aria-describedby="spaceman-desc" width="106" height="106"><path d="M91.53 22.17a2.495 2.495 0 01-2.495 2.496 2.495 2.495 0 01-2.495-2.495 2.495 2.495 0 012.495-2.495 2.495 2.495 0 012.495 2.495zm4.49-8.682c0-2.794 2.296-4.99 4.99-4.99 2.695 0 4.99 2.296 4.99 4.99 0 2.695-2.295 4.99-4.99 4.99-2.694 0-4.99-2.195-4.99-4.99zm2.994 0c0 1.098.898 1.996 1.996 1.996a2.002 2.002 0 001.996-1.996 2.002 2.002 0 00-1.996-1.995 2.002 2.002 0 00-1.996 1.995zM57.798 8.997c-10.579 0-19.26 8.683-19.26 19.262 0 2.565.52 5.014 1.445 7.26a9.698 9.698 0 00-.846-.374c-.1 0-.1-.002-.2-.101-.298-.1-.599-.199-.798-.299-.1 0-.2 0-.3-.1-.3-.099-.498-.1-.798-.2h-.3c-.399 0-.698-.1-1.097-.1H27.36c-.798 0-1.497.7-1.497 1.498v28.042c0 .798.699 1.497 1.497 1.497h8.284c.4 0 .798 0 1.097-.1h.3c.3 0 .498-.098.798-.198a.487.487 0 00.2-.043v2.039c0 4.91 2.417 9.23 6.088 11.913V95.11a1.434 1.434 0 00-.2.71v8.683c0 .798.7 1.497 1.498 1.497h17.263c.5 0 .9-.201 1.199-.6.3-.4.299-.897.199-1.396l-2.994-8.683c-.2-.6-.799-.998-1.398-.998h-.598V80.408c2.146-1.026 4-2.566 5.43-4.454 2.603.85 5.596.258 7.643-1.79 2.894-2.893 2.894-7.683 0-10.577l-4.59-4.59v-5.889c0-2.66-.713-5.14-1.936-7.29 6.703-3.024 11.416-9.772 11.416-17.56 0-10.678-8.683-19.26-19.261-19.26zm0 2.994c1.81 0 3.543.308 5.169.854L54.615 30.56a5.118 5.118 0 00-.708-.108c-2.794-.299-5.09 1.796-5.39 4.59-.298 2.795 1.797 5.19 4.591 5.39a5.044 5.044 0 004.705-2.475l9.29 3.63a16.179 16.179 0 01-9.305 2.936c-8.982 0-16.266-7.284-16.266-16.265 0-8.982 7.284-16.268 16.266-16.268zm8.617 2.96c.299.005.601.085.863.235 2.595 1.796 4.493 4.29 5.59 7.284.3.798-.1 1.597-.898 1.896-.2.1-.399.1-.598.1-.6 0-1.099-.4-1.299-.998-.898-2.395-2.395-4.39-4.49-5.787-.699-.5-.8-1.4-.4-2.098.25-.436.734-.638 1.232-.631zM53.707 33.349c1.097.1 1.996 1.097 1.896 2.195-.1 1.097-1.097 1.996-2.195 1.896-1.097-.1-1.996-1.097-1.896-2.195.1-1.097 1.097-1.996 2.195-1.896zm-24.85 3.793h6.986c.399 0 .8.1 1.099.1h.1c.399.099.698.198.997.297h.1c.3.1.698.3.998.5.3.199.599.4.898.7a6.57 6.57 0 012.294 4.989v11.875a6.57 6.57 0 01-2.294 4.99c-.3.3-.599.498-.898.698-.3.2-.599.399-.998.499h-.1c-.299.1-.698.2-.998.3h-.099c-.4.1-.8.1-1.1.1h-6.985V37.14zm17.297 6.397c3.244 2.483 7.275 3.98 11.644 3.98 1.68 0 3.304-.24 4.86-.65a12.017 12.017 0 011.927 6.34V56l-4.59-4.59c-2.895-2.895-7.684-2.895-10.579 0-2.894 2.894-2.894 7.683 0 10.577l12.175 12.177c.127.127.261.242.395.358-2.159 2.696-5.468 4.43-9.178 4.43-6.487 0-11.775-5.287-11.775-11.774v-3.596c2.574-1.755 4.29-4.753 4.29-8.081V44.15c.265-.22.547-.417.83-.612zm8.55 8.697a4.64 4.64 0 013.195 1.27l12.174 12.177c1.797 1.796 1.797 4.591 0 6.387-1.796 1.797-4.59 1.797-6.387 0L51.512 59.893c-1.797-1.796-1.797-4.59 0-6.387a4.635 4.635 0 013.193-1.271zM47.12 80.702a14.663 14.663 0 005.688 1.146c1.134 0 2.233-.14 3.294-.386v12.86H47.12v-13.62zm-.198 16.615h11.675l1.996 5.69H46.922v-5.69zM85.027 0a1.497 1.497 0 00-1.043 2.57l1.437 1.437-1.437 1.437a1.497 1.497 0 102.117 2.117l1.437-1.437 1.436 1.437a1.497 1.497 0 102.117-2.117l-1.436-1.437 1.436-1.436A1.497 1.497 0 0090.003 0a1.497 1.497 0 00-1.029.453L87.538 1.89 86.1.454A1.497 1.497 0 0085.027 0zM18.655 16.96a1.497 1.497 0 00-1.473 1.518v1.996h-1.996a1.497 1.497 0 100 2.994h1.996v1.996a1.497 1.497 0 102.994 0v-1.996h1.995a1.497 1.497 0 100-2.994h-1.995v-1.996a1.497 1.497 0 00-1.52-1.519z"/></svg>