<svg xmlns="http://www.w3.org/2000/svg" viewBox="0 0 106 106" aria-labelledby="bull-title" aria-describedby="bull-desc" width="106" height="106"><path d="M30.15 13c-.8 0-1.5.7-1.5 1.5 0 4.9 2.3 9.4 6.2 12.3h-.7c-3.3 0-6.399 1.5-8.399 4-1.4-4.7-5.6-7.9-10.5-8h-7.9v8c0 6 4.9 10.9 10.9 10.9h4.898V58c0 4.3 2.602 8.3 6.602 10l.2.1h.198c-.4 1.2-.6 2.4-.6 3.6v10.4c0 5.9 4.7 10.7 10.5 10.9H65.45c6 0 10.9-4.9 10.9-10.9V71.8c0-1.2-.199-2.4-.599-3.5 4.2-1.6 7-5.7 7-10.2V41.5h2.7c6 0 13.198-4.9 13.198-10.9v-8h-7.898c-4.9 0-9.1 3.7-10.5 8.2-2.1-2.5-5.2-4-8.4-4h-.702c3.9-2.9 6.202-7.5 6.202-12.3 0-.8-.7-1.5-1.5-1.5s-1.5.7-1.5 1.5c0 6.3-4.8 11.7-11.1 12.3h-20.5c-6.3-.6-11.102-6-11.102-12.3 0-.8-.7-1.5-1.5-1.5zm60.6 12.6h4.898v5c0 4.2-5.699 7.9-10.199 7.9h-2.5l-.1-.3v-4.7c0-4.4 3.601-7.9 7.901-7.9zm-56.7 4.3h37.7c4.4 0 7.898 3.6 7.898 7.9v.8H69.45c-6 0-10.9 4.9-10.9 10.9v11.3h-11.3V49.6c0-6.1-4.9-10.9-11-10.9H26.149v-.9c0-4.4 3.6-7.9 7.9-7.9zm-7.9 11.7h10.1c4.4 0 8 3.5 8 7.9v11.3h-3.8c-3.5 0-6.802 1.7-8.802 4.5l-.898-.1a7.935 7.935 0 01-4.602-7.2V41.6zm9.101 6.1a4 4 0 00-4 4 4 4 0 004 4 4 4 0 004-4 4 4 0 00-4-4zm35.398 0c2.2 0 4 1.8 4 4s-1.8 4-4 4-4-1.8-4-4 1.8-4 4-4zM40.45 63.9h25c2.9 0 5.501 1.6 6.801 4.1l.6 1c.3.9.5 1.8.5 2.8v10.3c0 4.4-3.6 7.9-7.9 7.9h-25c-4.4 0-7.901-3.6-7.901-7.9V71.8c0-4.4 3.6-7.9 7.9-7.9zm2.7 8.9c-2.8 0-5 2.2-5 5s2.2 5 5 5 5-2.2 5-5-2.2-5-5-5zm19.3 0c-2.8 0-5 2.2-5 5s2.2 5 5 5 5-2.2 5-5-2.2-5-5-5zm-19.3 3c1.1 0 2 .9 2 2 0 1.2-.9 2.1-2 2-1.1 0-2-.9-2-2s.9-2 2-2zm19.3 0c1.1 0 2 .9 2 2 0 1.2-.8 2.1-2 2-1.1 0-2-.9-2-2s.9-2 2-2z"/></svg>