<svg xmlns="http://www.w3.org/2000/svg" viewBox="0 0 106 106" aria-labelledby="cube-title" aria-describedby="cube-desc" width="106" height="106"><path d="M81.988 53.399v-19.1c4.8-.8 8.1-5.4 7.2-10.2-.9-4.8-5.4-8.1-10.2-7.2-3.7.6-6.6 3.5-7.2 7.2h-19.1c-.8-4.8-5.4-8.1-10.2-7.3-4.8.8-8.1 5.4-7.3 10.2.2 1.3.7 2.6 1.5 3.7l-6.1 6.1c-4-2.8-9.5-1.9-12.3 2.1-2.8 4-1.9 9.5 2.1 12.3 1.1.8 2.3 1.3 3.6 1.5v19.1c-4.8.8-8 5.4-7.2 10.2.8 4.8 5.4 8 10.2 7.2 3.7-.6 6.6-3.5 7.2-7.2h19.1c.7 4.2 4.4 7.3 8.7 7.3 4.6.1 8.4-3.5 8.5-8.2v-.4c0-1.8-.5-3.6-1.5-5.2l6.3-6.3c4 2.8 9.5 1.9 12.3-2.1 2.8-4 1.9-9.5-2.1-12.3-1-.7-2.2-1.2-3.5-1.4zm-1.5-33.7c3.2 0 5.8 2.6 5.8 5.8 0 3.2-2.6 5.8-5.8 5.8-3.2 0-5.8-2.6-5.8-5.8 0-3.2 2.6-5.8 5.8-5.8zm-27.8 7.4h19.1c.2 1.3.7 2.5 1.5 3.6l-6.1 6.1c-4-2.8-9.5-1.9-12.3 2.1-.8 1.1-1.3 2.3-1.5 3.6h-7.9v-8.2c3.7-.7 6.6-3.6 7.2-7.2zm8 33.5h-7.9c-.6-3.7-3.5-6.6-7.2-7.2v-7.9h7.9c.6 3.7 3.5 6.5 7.2 7.2v7.9zm1.5-10.9c-3.2 0-5.8-2.6-5.8-5.8 0-3.2 2.6-5.8 5.8-5.8 3.2 0 5.8 2.6 5.8 5.8 0 3.2-2.6 5.8-5.8 5.8zm-18.2-30c3.2 0 5.8 2.6 5.8 5.8 0 3.2-2.6 5.8-5.8 5.8-3.2 0-5.8-2.6-5.8-5.8 0-3.2 2.6-5.8 5.8-5.8zm-5.1 13c1.1.8 2.3 1.3 3.6 1.5v8.2h-8.2c-.2-1.3-.8-2.5-1.5-3.5l6.1-6.2zm-19.1 11.2c0-3.2 2.6-5.8 5.8-5.8 3.2 0 5.8 2.6 5.8 5.8 0 3.2-2.6 5.8-5.8 5.8-3.2.1-5.8-2.5-5.8-5.8zm5.9 42.4c-3.2 0-5.8-2.6-5.8-5.8 0-3.2 2.6-5.8 5.8-5.8 3.2 0 5.8 2.6 5.8 5.8 0 3.2-2.6 5.8-5.8 5.8zm5-13c-1.1-.8-2.3-1.3-3.6-1.6v-19.1c3.7-.6 6.6-3.5 7.2-7.2h8.2v7.9c-4.8.8-8 5.4-7.2 10.2.2 1.3.7 2.6 1.5 3.6l-6.1 6.2zm22.7 5.7h-19c-.2-1.3-.8-2.5-1.5-3.6l6.1-6.1c4 2.8 9.5 1.9 12.3-2 .8-1.1 1.3-2.4 1.5-3.7h7.9v8.1c-3.7.6-6.6 3.5-7.3 7.3zm8.7 7.3c-3.2 0-5.8-2.6-5.8-5.8 0-3.2 2.6-5.8 5.8-5.8 3.1 0 5.5 2.7 5.5 6.1.1 3-2.2 5.4-5.2 5.5h-.3zm5-12.9c-1-.8-2.2-1.4-3.5-1.6v-8.1h8.2c.2 1.3.7 2.5 1.5 3.6l-6.2 6.1zm4.7-12.8h-8.2v-7.9c4.8-.8 8-5.4 7.2-10.2-.2-1.3-.7-2.5-1.5-3.6l6.1-6.1c1.1.8 2.3 1.3 3.5 1.5v19.2c-3.6.5-6.4 3.4-7.1 7.1zm8.7 7.3c-3.2 0-5.8-2.6-5.8-5.8 0-3.2 2.6-5.8 5.8-5.8 3.2 0 5.8 2.6 5.8 5.8 0 3.2-2.6 5.8-5.8 5.8z"/></svg>